<svg width="18" height="18" viewBox="0 0 18 18" fill="none" xmlns="http://www.w3.org/2000/svg">
<path d="M2.53018 17.4535H8.16405V11.4902H6.13991V9.52428H8.16405V7.06686C8.16405 5.71183 9.29908 4.60945 10.6942 4.60945H13.2244V6.57538H11.2003C10.6422 6.57538 10.1882 7.01631 10.1882 7.55835V9.52428H13.1331L12.7957 11.4902H10.1882V17.4535H14.7425C16.1377 17.4535 17.2727 16.3512 17.2727 14.9961V3.135C17.2727 1.77996 16.1377 0.677582 14.7425 0.677582H2.53018C1.13502 0.677582 0 1.77996 0 3.135V14.9961C0 16.3512 1.13502 17.4535 2.53018 17.4535ZM1.01207 3.135C1.01207 2.322 1.69311 1.66055 2.53018 1.66055H14.7425C15.5796 1.66055 16.2606 2.322 16.2606 3.135V14.9961C16.2606 15.8091 15.5796 16.4706 14.7425 16.4706H11.2003V12.4732H13.6531L14.3278 8.54131H11.2003V7.55835H14.2365V3.62648H10.6942C8.74099 3.62648 7.15198 5.16979 7.15198 7.06686V8.54131H5.12783V12.4732H7.15198V16.4706H2.53018C1.69311 16.4706 1.01207 15.8091 1.01207 14.9961V3.135Z" fill="white"/>
</svg>
