<svg width="18" height="17" viewBox="0 0 18 17" fill="none" xmlns="http://www.w3.org/2000/svg">
<path d="M2.53018 16.8944H14.7425C16.1377 16.8944 17.2727 15.792 17.2727 14.4369V2.57582C17.2727 1.22079 16.1377 0.118408 14.7425 0.118408H2.53018C1.13502 0.118408 0 1.22079 0 2.57582V14.4369C0 15.792 1.13502 16.8944 2.53018 16.8944ZM1.01207 2.57582C1.01207 1.76283 1.69311 1.10137 2.53018 1.10137H14.7425C15.5796 1.10137 16.2606 1.76283 16.2606 2.57582V14.4369C16.2606 15.2499 15.5796 15.9114 14.7425 15.9114H2.53018C1.69311 15.9114 1.01207 15.2499 1.01207 14.4369V2.57582Z" fill="white"/>
<path d="M8.63635 12.9297C11.1476 12.9297 13.1907 10.9454 13.1907 8.50639C13.1907 6.0674 11.1476 4.08304 8.63635 4.08304C6.12515 4.08304 4.08203 6.0674 4.08203 8.50639C4.08203 10.9454 6.12515 12.9297 8.63635 12.9297ZM8.63635 5.06601C10.5896 5.06601 12.1786 6.60931 12.1786 8.50639C12.1786 10.4035 10.5896 11.9468 8.63635 11.9468C6.68311 11.9468 5.0941 10.4035 5.0941 8.50639C5.0941 6.60931 6.68311 5.06601 8.63635 5.06601Z" fill="white"/>
<path d="M13.4092 4.82745C14.2363 4.82745 14.9092 4.17389 14.9092 3.37059C14.9092 2.56729 14.2363 1.91373 13.4092 1.91373C12.5821 1.91373 11.9092 2.56729 11.9092 3.37059C11.9092 4.17389 12.5821 4.82745 13.4092 4.82745ZM13.4092 2.88497C13.6848 2.88497 13.9092 3.10287 13.9092 3.37059C13.9092 3.63831 13.6848 3.85621 13.4092 3.85621C13.1335 3.85621 12.9092 3.63831 12.9092 3.37059C12.9092 3.10287 13.1335 2.88497 13.4092 2.88497Z" fill="white"/>
</svg>
